<?xml version="1.0" standalone="no"?>
<!DOCTYPE svg PUBLIC "-//W3C//DTD SVG 20010904//EN"
 "http://www.w3.org/TR/2001/REC-SVG-20010904/DTD/svg10.dtd">
<svg version="1.0" xmlns="http://www.w3.org/2000/svg"
 width="558.000000pt" height="558.000000pt" viewBox="0 0 558.000000 558.000000"
 preserveAspectRatio="xMidYMid meet">
<metadata>
Created by potrace 1.14, written by Peter Selinger 2001-2017
</metadata>
<g transform="translate(0.000000,558.000000) scale(0.100000,-0.100000)"
fill="#000000" stroke="none">
<path d="M2527 5524 c-2 -2 -33 -7 -68 -10 -35 -2 -75 -7 -89 -10 -14 -2 -41
-7 -60 -10 -19 -3 -66 -12 -105 -20 -38 -8 -79 -16 -90 -18 -70 -13 -223 -61
-360 -111 -213 -78 -596 -301 -741 -430 -6 -5 -42 -37 -79 -70 -176 -154 -351
-352 -462 -523 -21 -31 -40 -59 -43 -62 -8 -8 -27 -40 -57 -97 -15 -29 -31
-53 -35 -53 -4 0 -8 -4 -8 -9 0 -5 -30 -70 -66 -145 -36 -76 -67 -143 -68
-149 -2 -7 -8 -23 -13 -37 -58 -143 -137 -438 -149 -555 -2 -27 -7 -56 -9 -63
-25 -72 -26 -666 -1 -743 2 -8 7 -39 10 -69 7 -66 8 -72 41 -240 3 -14 7 -36
10 -50 23 -119 144 -467 183 -528 8 -12 10 -22 6 -22 -5 0 -4 -4 1 -8 6 -4 25
-36 43 -72 39 -76 41 -80 111 -189 48 -74 144 -207 160 -221 3 -3 24 -27 46
-55 123 -154 295 -319 446 -427 83 -60 110 -78 116 -78 4 0 16 -8 27 -18 42
-38 243 -146 381 -207 97 -42 314 -115 390 -131 11 -2 43 -8 70 -14 28 -5 66
-13 85 -17 76 -16 420 -8 515 12 11 3 38 7 60 10 22 3 58 11 80 17 22 6 45 12
51 14 7 1 40 14 75 30 164 71 314 203 422 371 15 24 27 47 27 52 0 5 3 11 8
13 7 3 47 81 89 176 41 94 120 334 137 417 1 6 5 19 9 30 3 11 8 31 11 45 3
14 10 43 15 65 18 70 72 299 77 325 3 14 11 50 19 80 8 30 16 66 19 80 3 14
10 45 17 70 6 25 13 56 16 70 9 43 11 55 13 55 1 0 3 7 5 16 1 10 11 50 20 90
9 41 18 81 20 89 2 8 16 65 30 125 15 61 28 117 30 125 2 8 13 56 25 105 12
50 23 98 25 108 2 10 6 26 9 35 3 9 7 28 10 42 7 35 9 46 50 214 20 82 38 158
40 170 2 11 12 52 21 89 10 37 16 69 14 70 -2 2 -23 15 -46 30 -33 21 -41 31
-39 52 3 21 -6 30 -63 62 -221 124 -538 250 -775 308 -336 82 -602 77 -871
-16 -225 -78 -428 -235 -560 -434 -22 -33 -43 -62 -47 -65 -24 -18 -146 -316
-162 -396 -3 -10 -10 -41 -16 -69 -31 -132 -43 -327 -28 -455 10 -78 29 -163
39 -175 5 -5 9 -17 9 -27 0 -18 3 -25 33 -83 36 -71 52 -100 57 -105 3 -3 17
-21 31 -40 15 -19 41 -51 58 -70 17 -19 31 -38 31 -42 0 -9 67 -75 130 -129
112 -94 272 -169 452 -213 220 -53 365 -50 603 10 11 3 25 6 30 7 6 2 15 6 21
10 20 12 22 -3 7 -61 -91 -355 -215 -567 -398 -677 -141 -84 -293 -99 -499
-49 -34 8 -70 17 -80 19 -131 30 -609 242 -624 278 -2 4 -8 7 -14 7 -39 0
-363 325 -425 426 -6 10 -34 55 -62 99 -53 86 -141 258 -164 321 -8 22 -26 69
-40 106 -14 38 -23 68 -21 68 3 0 0 8 -5 18 -6 11 -12 30 -15 43 -3 13 -14 60
-25 104 -11 44 -22 94 -25 110 -2 17 -7 39 -9 50 -22 97 -31 543 -13 650 5 28
10 64 12 80 4 38 27 142 48 220 10 33 18 65 19 70 2 6 6 16 10 23 5 6 6 12 2
12 -3 0 2 17 11 38 8 20 17 45 19 55 9 43 94 226 164 352 27 50 168 258 196
290 103 118 127 145 166 185 204 209 501 406 769 509 126 49 139 53 142 50 2
-1 12 3 24 9 11 6 32 13 45 16 13 3 49 12 79 20 49 14 141 33 195 42 11 1 36
5 55 9 133 22 502 23 618 0 11 -2 42 -7 69 -10 309 -44 717 -217 978 -414 287
-216 463 -425 615 -730 68 -138 153 -372 174 -481 3 -14 12 -61 21 -105 9 -44
18 -93 19 -110 15 -156 19 -210 19 -298 1 -92 -8 -240 -17 -307 -2 -14 -7 -45
-10 -69 -3 -24 -13 -72 -21 -106 -8 -35 -16 -74 -19 -86 -15 -75 -74 -248
-119 -349 -31 -70 -118 -244 -125 -250 -4 -3 -13 -15 -19 -27 -26 -47 -38 -67
-46 -77 -117 -163 -185 -244 -293 -353 -72 -73 -136 -133 -142 -133 -7 0 -12
-4 -12 -8 0 -5 -46 -42 -101 -82 -99 -72 -159 -133 -167 -168 -2 -9 -6 -40 -9
-67 -6 -61 22 -131 68 -167 16 -13 29 -28 29 -34 0 -22 78 -94 121 -113 92
-41 107 -39 205 24 78 51 203 142 274 200 13 11 81 76 151 145 167 166 303
338 407 517 58 99 132 245 132 260 0 7 4 13 10 13 5 0 9 3 8 8 -1 4 16 54 39
112 45 115 94 270 86 270 -3 0 0 7 7 15 7 9 10 18 7 21 -3 3 1 23 8 45 8 22
14 42 14 44 -1 4 12 79 16 95 1 3 5 30 9 60 5 30 10 63 12 73 26 140 26 598 0
757 -3 14 -10 59 -16 100 -15 94 -18 108 -24 128 -3 9 -7 28 -10 42 -16 82
-97 337 -138 430 -58 133 -178 360 -228 430 -10 14 -28 42 -62 94 -7 11 -23
31 -35 45 -13 14 -23 29 -23 33 0 3 -6 13 -13 20 -7 7 -41 49 -77 93 -133 165
-237 276 -359 382 -24 21 -54 47 -65 58 -118 113 -495 343 -686 419 -25 10
-54 21 -65 26 -50 22 -201 71 -306 98 -132 35 -188 47 -339 68 -19 3 -48 8
-65 10 -40 6 -512 13 -518 8z m548 -2258 c28 -4 90 -17 143 -30 51 -12 198
-58 204 -65 4 -4 3 -22 -3 -41 -6 -19 -13 -48 -15 -65 -3 -16 -9 -43 -14 -60
-7 -24 -47 -194 -65 -278 -2 -10 -7 -27 -10 -37 -6 -18 -11 -39 -21 -89 -3
-13 -12 -51 -20 -85 -20 -81 -23 -97 -28 -121 -2 -11 -9 -40 -16 -65 -7 -25
-14 -52 -15 -60 -2 -8 -11 -46 -19 -85 -9 -38 -19 -81 -22 -95 -2 -14 -7 -32
-10 -40 -3 -8 -8 -26 -11 -40 -2 -14 -12 -29 -21 -35 -41 -24 -237 -91 -288
-99 -21 -3 -61 -9 -89 -14 -141 -23 -314 6 -454 76 -89 44 -125 86 -151 172
-60 203 -1 536 141 786 50 89 190 236 254 269 22 11 42 22 45 25 8 8 55 31 70
34 8 2 27 8 41 14 24 10 111 28 169 35 32 4 166 -1 205 -7z"/>
</g>
</svg>
