<!-- Generator: Adobe Illustrator 16.0.0, SVG Export Plug-In . SVG Version: 6.00 Build 0)  -->
<!DOCTYPE svg PUBLIC "-//W3C//DTD SVG 1.1//EN" "http://www.w3.org/Graphics/SVG/1.1/DTD/svg11.dtd">
<svg id="guebbit-logo-colored" version="1.1" xmlns="http://www.w3.org/2000/svg" viewBox="0 0 557.775 548.025" xml:space="preserve">
	<desc xmlns:guebbit="https://guebbit.com">
		<guebbit:title>guebbit</guebbit:title>
		<guebbit:descr>
			<guebbit:emph>guebbit</guebbit:emph>
			web developer
			website ecommerce
			soluzioni digitali internet
		</guebbit:descr>
	</desc>
	<!-- shadow -->
	<!-- (original: #11838E) -->
	<path style="fill:#00838f;" d="M557.073,266.44C546.815,115.053,415.775,0.639,264.39,10.894
		C113.002,21.148-1.412,152.19,8.843,303.576c6.17,91.094,42.998,166.667,124.414,212.986l-0.019,0.074
		c9.358,5.856,20.078,11.201,32.182,15.979c12.098,4.789,24.96,8.795,38.581,12.026c23.426,5.556,45.804,3.106,63.017,0.852
		c17.218-2.267,32.046-8.215,44.483-17.846c12.446-9.632,22.802-22.847,31.078-39.608c8.271-16.776,15.166-36.799,20.662-60.082
		l47.769-202.23c-4.661-3.022-10.234-6.21-16.723-9.578c-6.494-3.368-13.584-6.636-21.275-9.805
		c-7.688-3.167-15.796-6.185-24.316-9.078c-8.524-2.888-17.324-5.408-26.408-7.557c-19.792-4.691-38.494-5.907-56.091-3.644
		c-17.605,2.262-33.334,7.568-47.196,15.906c-13.858,8.33-25.718,19.591-35.591,33.768c-9.871,14.193-17.064,30.831-21.576,49.944
		c-3.779,16.003-5.1,30.916-3.95,44.734c1.144,13.814,4.782,26.216,10.927,37.174c6.134,10.96,14.756,20.312,25.875,28.035
		c11.125,7.729,24.761,13.508,40.924,17.335c14.529,3.449,28.163,4.182,40.902,2.204c12.745-1.965,25.056-5.392,36.941-10.261
		l-4.128,17.468c-3.049,12.915-6.903,24.781-11.566,35.591c-4.665,10.81-10.522,19.789-17.587,26.955
		c-7.054,7.15-15.515,12.116-25.373,14.877c-9.857,2.754-21.501,2.534-34.942-0.653c-11.805-2.8-23.896-6.804-36.273-12.053
		c-12.031-5.099-24.28-11.265-36.73-18.449c-50.615-38.528-84.967-97.877-89.605-166.331
		C48.725,176.475,143.825,67.557,269.662,59.033c125.834-8.524,234.75,86.574,243.275,212.407
		c5.688,83.978-34.777,160.412-99.722,204.51c-19.597,15.131-9.715,39.855,15.259,42.134
		C514.953,466.912,564.325,373.533,557.073,266.44z M287.942,376.525c-11.768,1.915-22.373,1.754-31.814-0.485
		c-8.717-2.068-16.246-5.095-22.595-9.093c-6.336-4.003-11.293-9.222-14.857-15.63c-3.563-6.424-5.635-14.12-6.197-23.091
		c-0.566-8.963,0.567-19.458,3.403-31.458c2.622-11.1,6.581-21.55,11.859-31.338c5.287-9.799,12.122-18.026,20.505-24.685
		c8.376-6.66,18.383-11.249,30.002-13.78c11.625-2.521,25.063-1.985,40.319,1.631c6.357,1.512,12.463,3.246,18.326,5.215
		c5.868,1.963,11.031,4.054,15.493,6.271l-29.459,124.709C311.369,370.701,299.708,374.605,287.942,376.525z"/>
	<!-- body -->
	<!-- (original: #36B9CF) -->
	<path style="fill:#00bcd4;" d="M548.868,256.184C538.612,104.797,407.571-9.616,256.186,0.639
		C104.797,10.894-9.615,141.936,0.639,293.32c6.171,91.095,42.999,166.669,124.415,212.986l-0.02,0.075
		c9.358,5.857,20.079,11.2,32.182,15.979c12.099,4.789,24.961,8.795,38.582,12.025c23.426,5.556,45.804,3.106,63.017,0.854
		c17.217-2.269,32.047-8.217,44.482-17.848c12.446-9.632,22.802-22.847,31.077-39.609c8.273-16.774,15.168-36.799,20.664-60.082
		l47.768-202.229c-4.662-3.022-10.235-6.211-16.723-9.578c-6.494-3.367-13.585-6.636-21.274-9.804
		c-7.688-3.167-15.797-6.185-24.316-9.078c-8.524-2.888-17.327-5.408-26.409-7.557c-19.792-4.691-38.496-5.907-56.091-3.644
		c-17.606,2.261-33.335,7.567-47.196,15.906c-13.859,8.33-25.718,19.59-35.591,33.768c-9.872,14.192-17.064,30.832-21.576,49.943
		c-3.78,16.003-5.1,30.917-3.95,44.735c1.144,13.814,4.782,26.217,10.927,37.174c6.133,10.96,14.755,20.313,25.875,28.037
		c11.125,7.727,24.76,13.508,40.924,17.335c14.53,3.449,28.163,4.18,40.901,2.202c12.745-1.964,25.057-5.392,36.941-10.261
		l-4.127,17.469c-3.048,12.915-6.903,24.78-11.565,35.59c-4.666,10.81-10.523,19.79-17.588,26.956
		c-7.055,7.15-15.516,12.116-25.373,14.878c-9.858,2.752-21.502,2.533-34.942-0.655c-11.806-2.798-23.897-6.804-36.273-12.052
		c-12.031-5.1-24.28-11.264-36.73-18.448c-50.616-38.53-84.967-97.879-89.605-166.332C40.52,166.219,135.621,57.303,261.458,48.778
		c125.834-8.524,234.75,86.574,243.274,212.407c5.689,83.978-34.775,160.411-99.721,204.509
		c-19.597,15.133-9.716,39.855,15.258,42.134C506.748,456.658,556.122,363.277,548.868,256.184z M279.736,366.271
		c-11.766,1.914-22.371,1.754-31.812-0.484c-8.717-2.07-16.247-5.096-22.596-9.095c-6.336-4.003-11.294-9.22-14.857-15.63
		c-3.563-6.423-5.635-14.119-6.197-23.089c-0.566-8.963,0.567-19.459,3.403-31.459c2.621-11.1,6.58-21.549,11.86-31.338
		c5.285-9.797,12.122-18.026,20.504-24.683c8.376-6.66,18.382-11.249,30.002-13.781c11.625-2.522,25.062-1.985,40.318,1.63
		c6.358,1.512,12.463,3.247,18.328,5.215c5.867,1.963,11.03,4.054,15.492,6.271l-29.459,124.708
		C303.166,360.445,291.503,364.353,279.736,366.271z"/>
</svg>
